 http://www.imdb.com/title/tt2388920/

Reel.Evil.2012.DVDRip.XviD-PTpOWeRReel.Evil.2012.DVDRip.XviD.avi


Format                           : AVI
Format/Info                      : Audio Video Interleave
File size                        : 709 MiB
Duration                         : 1h 17mn
Overall bit rate                 : 1 274 Kbps

Video
ID                               : 0
Format                           : MPEG-4 Visual
Format profile                   : Simple@L3
Format settings, BVOP            : No
Format settings, QPel            : No
Format settings, GMC             : No warppoints
Format settings, Matrix          : Default (H.263)
Codec ID                         : XVID
Codec ID/Hint                    : XviD
Duration                         : 1h 17mn
Bit rate                         : 1 133 Kbps
Width                            : 624 pixels
Height                           : 352 pixels
Display aspect ratio             : 16:9
Frame rate                       : 23.976 fps
Color space                      : YUV
Chroma subsampling               : 4:2:0
Bit depth                        : 8 bits
Scan type                        : Progressive
Compression mode                 : Lossy
Bits/(Pixel*Frame)               : 0.215
Stream size                      : 631 MiB (89%)
Writing library                  : XviD 1.1.2 (UTC 2006-11-01)

Audio
ID                               : 1
Format                           : MPEG Audio
Format version                   : Version 1
Format profile                   : Layer 3
Mode                             : Joint stereo
Mode extension                   : MS Stereo
Codec ID                         : 55
Codec ID/Hint                    : MP3
Duration                         : 1h 17mn
Bit rate mode                    : Constant
Bit rate                         : 128 Kbps
Channel(s)                       : 2 channels
Sampling rate                    : 48.0 KHz
Compression mode                 : Lossy
Stream size                      : 71.3 MiB (10%)
Alignment                        : Split accross interleaves
Interleave, duration             : 24 ms (0.58 video frame)
Writing library                  : LAME3.98


Kämpar filmskapare - Kennedy, Cory och James - fånga slutligen bryta de letade efter när de anlitade för att skjuta en "bakom kulisserna" dokumentär för en stor studio produktion. Men deras drömjobb snabbt förvandlas till en mardröm när de utforskar den legendariska, hemsökta plats och hitta något mycket värre än något Hollywood kan skapa. Terror blir verklighet för filmare som de avslöja illvilliga hemligheter sjukhuset, och den lömska läkare som en gång drev det. Instängd på sjukhuset utan uppenbar väg ut, är vår besättning plågas av det onda, outsäglig fruktan.
